<?xml version="1.0" encoding="utf-8"?>
<!-- Generator: Adobe Illustrator 24.1.2, SVG Export Plug-In . SVG Version: 6.00 Build 0)  -->
<svg version="1.1" id="Layer_1" xmlns="http://www.w3.org/2000/svg" xmlns:xlink="http://www.w3.org/1999/xlink" x="0px" y="0px"
	 width="157px" height="43px" viewBox="0 0 157 43" style="enable-background:new 0 0 157 43;" xml:space="preserve">
<style type="text/css">
	.st0{fill:#102A42;}
	.st1{fill:#2CAEBA;}
</style>
<g>
	<path class="st0" d="M6.4,33.1c0,0.1,0,0.2-0.1,0.4S6,33.6,5.8,33.7c-0.2,0.1-0.5,0.1-0.8,0.2c-0.3,0-0.7,0.1-1.3,0.1
		c-0.5,0-0.9,0-1.2-0.1s-0.6-0.1-0.8-0.2c-0.2-0.1-0.3-0.1-0.4-0.3c-0.1-0.1-0.1-0.2-0.1-0.4V9.2c0-0.1,0-0.2,0.1-0.4
		c0.1-0.1,0.2-0.2,0.4-0.3s0.5-0.1,0.8-0.2s0.7-0.1,1.2-0.1c0.5,0,0.9,0,1.3,0.1c0.3,0,0.6,0.1,0.8,0.2C6,8.6,6.1,8.7,6.2,8.8
		C6.3,8.9,6.4,9,6.4,9.2V33.1z"/>
	<path class="st0" d="M26.4,33.2c0,0.2-0.1,0.3-0.2,0.4s-0.3,0.2-0.6,0.2s-0.7,0.1-1.2,0.1c-0.6,0-1,0-1.3-0.1s-0.5-0.1-0.6-0.2
		c-0.1-0.1-0.2-0.2-0.2-0.4v-1.4c-0.7,0.8-1.5,1.4-2.5,1.8C19,34,18,34.2,16.9,34.2c-0.9,0-1.8-0.1-2.6-0.4s-1.4-0.6-2-1.1
		c-0.6-0.5-1-1.1-1.3-1.8s-0.5-1.5-0.5-2.5c0-1,0.2-1.9,0.6-2.7c0.4-0.7,1-1.4,1.8-1.9c0.8-0.5,1.8-0.9,2.9-1.1
		c1.2-0.2,2.5-0.4,4.1-0.4h1.7v-1.1c0-0.5-0.1-1-0.2-1.4c-0.1-0.4-0.3-0.8-0.5-1c-0.3-0.3-0.6-0.5-1-0.6c-0.4-0.1-0.9-0.2-1.6-0.2
		c-0.8,0-1.6,0.1-2.2,0.3c-0.6,0.2-1.2,0.4-1.7,0.6c-0.5,0.2-0.9,0.4-1.2,0.6c-0.3,0.2-0.6,0.3-0.8,0.3c-0.1,0-0.3,0-0.4-0.1
		c-0.1-0.1-0.2-0.2-0.3-0.4s-0.1-0.4-0.2-0.6c0-0.2-0.1-0.5-0.1-0.8c0-0.4,0-0.7,0.1-1c0.1-0.2,0.2-0.4,0.4-0.6
		c0.2-0.2,0.5-0.4,1-0.6s1-0.4,1.6-0.6c0.6-0.2,1.3-0.4,2-0.5s1.5-0.2,2.2-0.2c1.4,0,2.5,0.1,3.5,0.4c1,0.3,1.8,0.7,2.4,1.2
		c0.6,0.6,1.1,1.3,1.4,2.1c0.3,0.9,0.4,1.9,0.4,3.1V33.2z M21.6,25.7h-1.9c-0.8,0-1.5,0.1-2,0.2c-0.6,0.1-1,0.3-1.4,0.5
		s-0.6,0.5-0.8,0.9c-0.2,0.3-0.2,0.7-0.2,1.1c0,0.7,0.2,1.3,0.7,1.7c0.5,0.4,1.1,0.6,1.9,0.6c0.7,0,1.3-0.2,1.9-0.5
		c0.6-0.4,1.2-0.9,1.8-1.5V25.7z"/>
	<path class="st0" d="M59.1,33.1c0,0.1,0,0.2-0.1,0.3c-0.1,0.1-0.2,0.2-0.4,0.2c-0.2,0.1-0.4,0.1-0.7,0.1s-0.7,0-1.2,0
		c-0.5,0-0.9,0-1.2,0s-0.6-0.1-0.8-0.1s-0.3-0.1-0.4-0.2c-0.1-0.1-0.1-0.2-0.1-0.3V22.8c0-0.6-0.1-1.1-0.2-1.6
		c-0.1-0.5-0.3-0.9-0.5-1.2c-0.2-0.3-0.5-0.6-0.9-0.8c-0.3-0.2-0.8-0.3-1.2-0.3c-0.6,0-1.2,0.2-1.8,0.7s-1.3,1.1-2,2v11.6
		c0,0.1,0,0.2-0.1,0.3c-0.1,0.1-0.2,0.2-0.4,0.2s-0.4,0.1-0.8,0.1s-0.7,0-1.2,0c-0.5,0-0.9,0-1.2,0s-0.6-0.1-0.8-0.1
		c-0.2-0.1-0.3-0.1-0.4-0.2c-0.1-0.1-0.1-0.2-0.1-0.3V22.8c0-0.6-0.1-1.1-0.2-1.6c-0.1-0.5-0.3-0.9-0.5-1.2
		c-0.2-0.3-0.5-0.6-0.9-0.8s-0.8-0.3-1.2-0.3c-0.6,0-1.2,0.2-1.8,0.7c-0.6,0.5-1.2,1.1-1.9,2v11.6c0,0.1,0,0.2-0.1,0.3
		c-0.1,0.1-0.2,0.2-0.4,0.2s-0.4,0.1-0.8,0.1s-0.7,0-1.2,0c-0.5,0-0.9,0-1.2,0s-0.6-0.1-0.8-0.1s-0.3-0.1-0.4-0.2
		c-0.1-0.1-0.1-0.2-0.1-0.3V15.7c0-0.1,0-0.2,0.1-0.3c0.1-0.1,0.2-0.2,0.4-0.2c0.2-0.1,0.4-0.1,0.7-0.1c0.3,0,0.6,0,1,0
		c0.4,0,0.8,0,1,0c0.3,0,0.5,0.1,0.6,0.1c0.1,0.1,0.3,0.1,0.3,0.2c0.1,0.1,0.1,0.2,0.1,0.3v2c1-1,1.9-1.8,2.9-2.3c1-0.5,2-0.8,3-0.8
		c0.7,0,1.4,0.1,1.9,0.2s1.1,0.4,1.5,0.6s0.8,0.6,1.2,1s0.6,0.8,0.8,1.3c0.5-0.6,1-1,1.5-1.4c0.5-0.4,1-0.7,1.5-1s1-0.4,1.5-0.6
		s1-0.2,1.5-0.2c1.2,0,2.1,0.2,2.9,0.6s1.4,0.9,1.9,1.6c0.5,0.7,0.8,1.5,1,2.4c0.2,0.9,0.3,1.9,0.3,2.9V33.1z"/>
	<path class="st1" d="M88.3,26.2c0,1.3-0.2,2.5-0.7,3.5c-0.5,1-1.2,1.8-2,2.5c-0.8,0.7-1.8,1.2-3,1.5c-1.1,0.3-2.3,0.5-3.6,0.5
		c-0.9,0-1.7-0.1-2.4-0.2c-0.7-0.1-1.4-0.3-2-0.5s-1.1-0.4-1.4-0.6c-0.4-0.2-0.7-0.4-0.8-0.6c-0.2-0.2-0.3-0.4-0.4-0.7
		c-0.1-0.3-0.1-0.8-0.1-1.4c0-0.4,0-0.7,0-1c0-0.3,0.1-0.5,0.1-0.7c0.1-0.2,0.1-0.3,0.2-0.4c0.1-0.1,0.2-0.1,0.3-0.1
		c0.2,0,0.4,0.1,0.8,0.3c0.3,0.2,0.8,0.5,1.3,0.7c0.5,0.3,1.1,0.5,1.9,0.7c0.7,0.2,1.6,0.3,2.5,0.3c0.6,0,1.2-0.1,1.7-0.2
		c0.5-0.2,0.9-0.4,1.3-0.6c0.3-0.3,0.6-0.6,0.8-1c0.2-0.4,0.3-0.9,0.3-1.3c0-0.6-0.2-1.1-0.5-1.5c-0.3-0.4-0.7-0.8-1.2-1.1
		s-1.1-0.6-1.7-0.9c-0.6-0.3-1.3-0.6-2-0.9c-0.7-0.3-1.3-0.7-2-1.1c-0.6-0.4-1.2-0.9-1.7-1.4s-0.9-1.2-1.2-2s-0.5-1.7-0.5-2.7
		c0-1.2,0.2-2.3,0.7-3.2c0.5-0.9,1.1-1.7,1.8-2.3c0.8-0.6,1.7-1.1,2.7-1.4c1-0.3,2.1-0.4,3.3-0.4c0.6,0,1.2,0,1.8,0.1
		s1.2,0.2,1.7,0.4c0.5,0.2,1,0.3,1.4,0.5c0.4,0.2,0.7,0.4,0.8,0.5c0.1,0.1,0.2,0.2,0.3,0.3c0,0.1,0.1,0.2,0.1,0.4
		c0,0.2,0.1,0.3,0.1,0.6c0,0.2,0,0.5,0,0.9c0,0.4,0,0.7,0,1s-0.1,0.5-0.1,0.6c0,0.2-0.1,0.3-0.2,0.4c-0.1,0.1-0.2,0.1-0.3,0.1
		c-0.1,0-0.4-0.1-0.7-0.3c-0.3-0.2-0.7-0.4-1.2-0.6c-0.5-0.2-1-0.4-1.6-0.6c-0.6-0.2-1.3-0.3-2-0.3c-0.6,0-1,0.1-1.5,0.2
		c-0.4,0.1-0.8,0.3-1,0.6c-0.3,0.2-0.5,0.5-0.6,0.9c-0.1,0.3-0.2,0.7-0.2,1.1c0,0.6,0.2,1,0.5,1.5c0.3,0.4,0.7,0.8,1.2,1.1
		c0.5,0.3,1.1,0.6,1.8,0.9c0.7,0.3,1.3,0.6,2,0.9c0.7,0.3,1.3,0.7,2,1.1c0.7,0.4,1.2,0.9,1.7,1.4c0.5,0.6,0.9,1.2,1.2,2
		S88.3,25.2,88.3,26.2z"/>
	<path class="st1" d="M96.8,33.1c0,0.1,0,0.2-0.1,0.3c-0.1,0.1-0.2,0.2-0.4,0.2c-0.2,0.1-0.4,0.1-0.8,0.1c-0.3,0-0.7,0-1.2,0
		s-0.9,0-1.2,0c-0.3,0-0.6-0.1-0.8-0.1c-0.2-0.1-0.3-0.1-0.4-0.2c-0.1-0.1-0.1-0.2-0.1-0.3V7.4c0-0.1,0-0.2,0.1-0.4
		c0.1-0.1,0.2-0.2,0.4-0.3c0.2-0.1,0.4-0.1,0.8-0.2c0.3,0,0.7-0.1,1.2-0.1s0.9,0,1.2,0.1c0.3,0,0.6,0.1,0.8,0.2
		c0.2,0.1,0.3,0.2,0.4,0.3c0.1,0.1,0.1,0.2,0.1,0.4V33.1z"/>
	<path class="st1" d="M116.6,33.2c0,0.2-0.1,0.3-0.2,0.4c-0.1,0.1-0.3,0.2-0.6,0.2c-0.3,0-0.7,0.1-1.2,0.1c-0.6,0-1,0-1.3-0.1
		s-0.5-0.1-0.6-0.2c-0.1-0.1-0.2-0.2-0.2-0.4v-1.4c-0.7,0.8-1.5,1.4-2.5,1.8c-0.9,0.4-1.9,0.6-3.1,0.6c-0.9,0-1.8-0.1-2.6-0.4
		s-1.4-0.6-2-1.1c-0.6-0.5-1-1.1-1.3-1.8c-0.3-0.7-0.5-1.5-0.5-2.5c0-1,0.2-1.9,0.6-2.7c0.4-0.7,1-1.4,1.8-1.9
		c0.8-0.5,1.8-0.9,2.9-1.1c1.2-0.2,2.5-0.4,4.1-0.4h1.7v-1.1c0-0.5-0.1-1-0.2-1.4c-0.1-0.4-0.3-0.8-0.5-1c-0.3-0.3-0.6-0.5-1-0.6
		s-0.9-0.2-1.6-0.2c-0.8,0-1.6,0.1-2.2,0.3c-0.6,0.2-1.2,0.4-1.7,0.6c-0.5,0.2-0.9,0.4-1.2,0.6c-0.3,0.2-0.6,0.3-0.8,0.3
		c-0.1,0-0.3,0-0.4-0.1c-0.1-0.1-0.2-0.2-0.3-0.4c-0.1-0.2-0.1-0.4-0.2-0.6c0-0.2-0.1-0.5-0.1-0.8c0-0.4,0-0.7,0.1-1
		c0.1-0.2,0.2-0.4,0.4-0.6c0.2-0.2,0.5-0.4,1-0.6s1-0.4,1.6-0.6c0.6-0.2,1.3-0.4,2-0.5s1.5-0.2,2.2-0.2c1.4,0,2.5,0.1,3.5,0.4
		c1,0.3,1.8,0.7,2.4,1.2s1.1,1.3,1.4,2.1c0.3,0.9,0.4,1.9,0.4,3.1V33.2z M111.8,25.7h-1.9c-0.8,0-1.5,0.1-2,0.2s-1,0.3-1.4,0.5
		c-0.4,0.2-0.6,0.5-0.8,0.9s-0.2,0.7-0.2,1.1c0,0.7,0.2,1.3,0.7,1.7s1.1,0.6,1.9,0.6c0.7,0,1.3-0.2,1.9-0.5c0.6-0.4,1.2-0.9,1.8-1.5
		V25.7z"/>
	<path class="st1" d="M137,15.7c0,0.1,0,0.1,0,0.2c0,0.1,0,0.2,0,0.3s0,0.2-0.1,0.4s-0.1,0.3-0.1,0.5l-5.2,15.8
		c-0.1,0.2-0.2,0.4-0.3,0.5c-0.1,0.1-0.3,0.2-0.5,0.3c-0.3,0.1-0.6,0.1-1,0.2c-0.4,0-1,0-1.7,0c-0.7,0-1.3,0-1.7,0
		c-0.4,0-0.8-0.1-1-0.2c-0.2-0.1-0.4-0.2-0.5-0.3c-0.1-0.1-0.2-0.3-0.3-0.5l-5.2-15.8c-0.1-0.3-0.1-0.5-0.2-0.7
		c0-0.2-0.1-0.4-0.1-0.4c0-0.1,0-0.2,0-0.3c0-0.1,0-0.2,0.1-0.3c0.1-0.1,0.2-0.2,0.4-0.2c0.2-0.1,0.4-0.1,0.8-0.1c0.3,0,0.7,0,1.2,0
		c0.5,0,1,0,1.3,0c0.3,0,0.6,0.1,0.8,0.1c0.2,0.1,0.3,0.1,0.4,0.3c0.1,0.1,0.1,0.2,0.2,0.4l4,12.8l0.1,0.5l0.1-0.5l3.9-12.8
		c0-0.2,0.1-0.3,0.2-0.4c0.1-0.1,0.2-0.2,0.4-0.3c0.2-0.1,0.4-0.1,0.7-0.1c0.3,0,0.7,0,1.2,0c0.5,0,0.9,0,1.2,0
		c0.3,0,0.5,0.1,0.7,0.1c0.2,0.1,0.3,0.1,0.4,0.2S137,15.5,137,15.7z"/>
	<path class="st1" d="M154.2,33.2c0,0.2-0.1,0.3-0.2,0.4c-0.1,0.1-0.3,0.2-0.6,0.2c-0.3,0-0.7,0.1-1.2,0.1c-0.6,0-1,0-1.3-0.1
		s-0.5-0.1-0.6-0.2c-0.1-0.1-0.2-0.2-0.2-0.4v-1.4c-0.7,0.8-1.5,1.4-2.5,1.8c-0.9,0.4-1.9,0.6-3.1,0.6c-0.9,0-1.8-0.1-2.6-0.4
		s-1.4-0.6-2-1.1c-0.6-0.5-1-1.1-1.3-1.8c-0.3-0.7-0.5-1.5-0.5-2.5c0-1,0.2-1.9,0.6-2.7c0.4-0.7,1-1.4,1.8-1.9
		c0.8-0.5,1.8-0.9,2.9-1.1c1.2-0.2,2.5-0.4,4.1-0.4h1.7v-1.1c0-0.5-0.1-1-0.2-1.4c-0.1-0.4-0.3-0.8-0.5-1c-0.3-0.3-0.6-0.5-1-0.6
		s-0.9-0.2-1.6-0.2c-0.8,0-1.6,0.1-2.2,0.3c-0.6,0.2-1.2,0.4-1.7,0.6c-0.5,0.2-0.9,0.4-1.2,0.6c-0.3,0.2-0.6,0.3-0.8,0.3
		c-0.1,0-0.3,0-0.4-0.1c-0.1-0.1-0.2-0.2-0.3-0.4c-0.1-0.2-0.1-0.4-0.2-0.6c0-0.2-0.1-0.5-0.1-0.8c0-0.4,0-0.7,0.1-1
		c0.1-0.2,0.2-0.4,0.4-0.6c0.2-0.2,0.5-0.4,1-0.6s1-0.4,1.6-0.6c0.6-0.2,1.3-0.4,2-0.5s1.5-0.2,2.2-0.2c1.4,0,2.5,0.1,3.5,0.4
		c1,0.3,1.8,0.7,2.4,1.2s1.1,1.3,1.4,2.1c0.3,0.9,0.4,1.9,0.4,3.1V33.2z M149.4,25.7h-1.9c-0.8,0-1.5,0.1-2,0.2s-1,0.3-1.4,0.5
		c-0.4,0.2-0.6,0.5-0.8,0.9s-0.2,0.7-0.2,1.1c0,0.7,0.2,1.3,0.7,1.7s1.1,0.6,1.9,0.6c0.7,0,1.3-0.2,1.9-0.5c0.6-0.4,1.2-0.9,1.8-1.5
		V25.7z"/>
</g>
</svg>
